<svg width="14" height="14" viewBox="0 0 14 14" fill="none" xmlns="http://www.w3.org/2000/svg">
<path d="M12.5767 6.26488L11.7892 5.34322C11.6433 5.16822 11.5208 4.84155 11.5208 4.60822V3.61655C11.5208 2.99822 11.0133 2.49072 10.395 2.49072H9.40334C9.17 2.49072 8.8375 2.36822 8.6625 2.22238L7.74084 1.43488C7.33834 1.09072 6.67917 1.09072 6.27667 1.43488L5.34334 2.22238C5.16834 2.36822 4.84167 2.49072 4.60834 2.49072H3.59917C2.98084 2.49072 2.47334 2.99822 2.47334 3.61655V4.60822C2.47334 4.83572 2.35667 5.16238 2.21084 5.33738L1.42334 6.26488C1.085 6.67322 1.085 7.32655 1.42334 7.72322L2.21084 8.65072C2.35667 8.81988 2.47334 9.15238 2.47334 9.37988V10.3774C2.47334 10.9957 2.98084 11.5032 3.59917 11.5032H4.61417C4.84167 11.5032 5.17417 11.6257 5.34917 11.7715L6.27084 12.559C6.67334 12.9032 7.3325 12.9032 7.735 12.559L8.65667 11.7715C8.83167 11.6257 9.15834 11.5032 9.39167 11.5032H10.3833C11.0017 11.5032 11.5092 10.9957 11.5092 10.3774V9.38572C11.5092 9.15238 11.6317 8.82572 11.7775 8.65072L12.565 7.72905C12.9208 7.33238 12.9208 6.67322 12.5767 6.26488ZM6.5625 4.74238C6.5625 4.50322 6.76084 4.30488 7 4.30488C7.23917 4.30488 7.4375 4.50322 7.4375 4.74238V7.55988C7.4375 7.79905 7.23917 7.99738 7 7.99738C6.76084 7.99738 6.5625 7.79905 6.5625 7.55988V4.74238ZM7 9.84072C6.67917 9.84072 6.41667 9.57822 6.41667 9.25738C6.41667 8.93655 6.67334 8.67405 7 8.67405C7.32084 8.67405 7.58334 8.93655 7.58334 9.25738C7.58334 9.57822 7.32667 9.84072 7 9.84072Z" fill="#F30000"/>
</svg>
