<svg width="30" height="30" viewBox="0 0 30 30" fill="none" xmlns="http://www.w3.org/2000/svg">
<path opacity="0.4" d="M20 2.5H10C5 2.5 2.5 5 2.5 10V26.25C2.5 26.9375 3.0625 27.5 3.75 27.5H20C25 27.5 27.5 25 27.5 20V10C27.5 5 25 2.5 20 2.5Z" fill="#0028EF"/>
<path d="M20.6875 9.32499C19.1125 7.74999 17.5875 7.71249 15.975 9.32499L14.9875 10.3125C14.9 10.4 14.875 10.525 14.9 10.6375C15.5125 12.7875 17.225 14.5 19.375 15.1125C19.4 15.125 19.4375 15.125 19.475 15.125C19.5625 15.125 19.65 15.0875 19.7125 15.025L20.6875 14.05C21.4875 13.25 21.875 12.4875 21.875 11.7125C21.875 10.9 21.4875 10.125 20.6875 9.32499Z" fill="#0028EF"/>
<path d="M17.925 15.8374C17.6875 15.7249 17.4625 15.6124 17.25 15.4749C17.075 15.3749 16.9 15.2624 16.7375 15.1374C16.6 15.0499 16.4375 14.9249 16.275 14.7874C16.25 14.7749 16.2 14.7374 16.1375 14.6624C15.875 14.4374 15.575 14.1374 15.3 13.8249C15.275 13.8124 15.2375 13.7499 15.1875 13.6749C15.1 13.5749 14.975 13.4124 14.85 13.2374C14.75 13.1124 14.6375 12.9374 14.5375 12.7624C14.4125 12.5499 14.2875 12.3249 14.1875 12.0999C14.075 11.8499 13.9875 11.6249 13.9 11.3999L9.1875 16.1124C8.875 16.4249 8.5875 16.9999 8.525 17.4249L8.16249 20.0249C8.07499 20.5749 8.23747 21.0874 8.57497 21.4374C8.86247 21.7249 9.2625 21.8749 9.7 21.8749C9.8 21.8749 9.88748 21.8624 9.98748 21.8499L12.5875 21.4874C13.0125 21.4249 13.5875 21.1374 13.9 20.8249L18.6125 16.1124C18.3875 16.0249 18.1625 15.9374 17.925 15.8374Z" fill="#0028EF"/>
</svg>
