<svg width="17" height="17" viewBox="0 0 17 17" fill="none" xmlns="http://www.w3.org/2000/svg">
<path d="M8.33333 0C3.73083 0 0 3.73083 0 8.33332C0 12.9358 3.73083 16.6666 8.33333 16.6666C12.5667 16.6666 16.12 13.4933 16.615 9.32331C16.6683 8.86581 16.3425 8.44 15.885 8.385C15.4283 8.33166 15.0017 8.65748 14.9483 9.11498C14.5525 12.4483 11.72 15 8.33333 15C4.65166 15 1.66667 12.015 1.66667 8.33332C1.66667 4.65166 4.65166 1.66666 8.33333 1.66666C9.10249 1.66666 9.86416 1.80583 10.5733 2.05749C11.0067 2.21082 11.4608 1.96999 11.615 1.53666C11.7683 1.10249 11.5533 0.622509 11.12 0.468342C10.2333 0.154176 9.29249 0 8.33333 0ZM15.8333 1.66666C15.62 1.66666 15.3967 1.74167 15.2342 1.90084L7.96832 9.06249C7.75416 9.27332 7.53832 9.23249 7.36999 8.98416L6.53666 7.76C6.28166 7.38417 5.74666 7.27499 5.365 7.52583C4.9825 7.77666 4.875 8.29583 5.13 8.67166L5.96333 9.89582C6.71417 11.0033 8.18332 11.15 9.14082 10.2083L16.4325 3.07332C16.7575 2.75332 16.7575 2.22083 16.4325 1.90084C16.27 1.74084 16.0467 1.66666 15.8333 1.66666Z" fill="#2744FF"/>
</svg>
