<svg width="29" height="29" viewBox="0 0 29 29" fill="none" xmlns="http://www.w3.org/2000/svg">
<g clip-path="url(#clip0_75_786)">
<path d="M11.6261 22.5744L10.6008 19.4984C10.3121 18.644 9.64623 17.9782 8.79181 17.6894L5.71589 16.6641C3.07603 15.7802 3.11138 12.0326 5.76893 11.2135L7.15957 10.7892C7.34813 10.7303 7.55437 10.7362 7.74293 10.8069L18.5499 14.8964C18.9918 15.0672 19.2275 15.5504 19.0861 15.9983L17.065 22.5095C16.2459 25.1671 12.5041 25.2083 11.6261 22.5744Z" fill="#3F5FFF"/>
<path d="M18.8031 13.7239L11.7262 11.0428C10.9307 10.7423 10.966 9.59913 11.7792 9.35165L16.9705 7.74298C19.1743 7.05944 21.2367 9.12184 20.5532 11.3257L19.9816 13.1582C19.8225 13.6473 19.2804 13.9066 18.8031 13.7239Z" fill="#3F5FFF"/>
</g>
<defs>
<clipPath id="clip0_75_786">
<rect width="20" height="20" fill="white" transform="translate(14.1421) rotate(45)"/>
</clipPath>
</defs>
</svg>
