<svg width="28" height="28" viewBox="0 0 28 28" fill="none" xmlns="http://www.w3.org/2000/svg">
<path opacity="0.4" d="M21.4086 22.96C20.7669 24.605 19.2036 25.6667 17.4419 25.6667H10.5586C8.78522 25.6667 7.23355 24.605 6.59189 22.96C5.95022 21.3033 6.39355 19.4717 7.70022 18.2817L12.4252 14H15.5869L20.3002 18.2817C21.6069 19.4717 22.0386 21.3033 21.4086 22.96Z" fill="#007504"/>
<path d="M16.1235 21.1633H11.8768C11.4335 21.1633 11.0835 20.8017 11.0835 20.37C11.0835 19.9267 11.4452 19.5767 11.8768 19.5767H16.1235C16.5668 19.5767 16.9168 19.9383 16.9168 20.37C16.9168 20.8017 16.5552 21.1633 16.1235 21.1633Z" fill="#007504"/>
<path d="M21.4084 5.04016C20.7668 3.39516 19.2034 2.3335 17.4418 2.3335H10.5584C8.79677 2.3335 7.23344 3.39516 6.59177 5.04016C5.96177 6.69683 6.39344 8.5285 7.71177 9.7185L12.4251 14.0002H15.5868L20.3001 9.7185C21.6068 8.5285 22.0384 6.69683 21.4084 5.04016ZM16.1234 8.43516H11.8768C11.4334 8.43516 11.0834 8.0735 11.0834 7.64183C11.0834 7.21016 11.4451 6.8485 11.8768 6.8485H16.1234C16.5668 6.8485 16.9168 7.21016 16.9168 7.64183C16.9168 8.0735 16.5551 8.43516 16.1234 8.43516Z" fill="#007504"/>
</svg>
