<svg width="19" height="19" viewBox="0 0 19 19" fill="none" xmlns="http://www.w3.org/2000/svg">
<path d="M16.8517 5.83048C16.3671 4.25981 14.9966 2.94972 13.3536 2.48648C12.1042 2.13905 11.241 2.168 10.6429 2.59505C9.92356 3.10896 9.84027 4.03543 9.84027 4.6941V6.49639C9.84027 8.27696 10.6883 9.18172 12.3541 9.18172H14.5272C15.2086 9.18172 16.1854 9.1021 16.723 8.41448C17.1849 7.84991 17.2227 7.02477 16.8517 5.83048Z" fill="#0028EF"/>
<path opacity="0.4" d="M14.7619 10.4701C14.5651 10.253 14.2773 10.1299 13.982 10.1299H11.2713C9.93871 10.1299 8.85595 9.09488 8.85595 7.82098V5.22974C8.85595 4.94745 8.72724 4.67241 8.50008 4.48422C8.2805 4.29602 7.97763 4.20917 7.68991 4.24536C5.91055 4.4625 4.27505 5.39622 3.20743 6.80041C2.13225 8.21183 1.73852 9.9345 2.07924 11.6572C2.57141 14.1471 4.65364 16.1375 7.26589 16.608C7.68234 16.6876 8.09878 16.7238 8.51523 16.7238C9.88571 16.7238 11.2108 16.3185 12.339 15.5295C13.8079 14.509 14.7846 12.9455 15.0118 11.2446C15.0496 10.9623 14.9588 10.68 14.7619 10.4701Z" fill="#0028EF"/>
</svg>
