<svg width="30" height="30" viewBox="0 0 30 30" fill="none" xmlns="http://www.w3.org/2000/svg">
<path d="M15 28.4375C7.5875 28.4375 1.5625 22.4125 1.5625 15C1.5625 7.5875 7.5875 1.5625 15 1.5625C22.4125 1.5625 28.4375 7.5875 28.4375 15C28.4375 22.4125 22.4125 28.4375 15 28.4375ZM15 3.4375C8.625 3.4375 3.4375 8.625 3.4375 15C3.4375 21.375 8.625 26.5625 15 26.5625C21.375 26.5625 26.5625 21.375 26.5625 15C26.5625 8.625 21.375 3.4375 15 3.4375Z" fill="#171717"/>
<path d="M11.25 27.1875H10C9.48755 27.1875 9.06255 26.7625 9.06255 26.25C9.06255 25.7375 9.46255 25.325 9.97505 25.3125C8.01255 18.6125 8.01255 11.3875 9.97505 4.6875C9.46255 4.675 9.06255 4.2625 9.06255 3.75C9.06255 3.2375 9.48755 2.8125 10 2.8125H11.25C11.55 2.8125 11.8375 2.9625 12.0125 3.2C12.1875 3.45 12.2375 3.7625 12.1375 4.05C9.78755 11.1125 9.78755 18.8875 12.1375 25.9625C12.2375 26.25 12.1875 26.5625 12.0125 26.8125C11.8375 27.0375 11.55 27.1875 11.25 27.1875Z" fill="#171717"/>
<path d="M18.75 27.1875C18.65 27.1875 18.55 27.175 18.45 27.1375C17.9625 26.975 17.6875 26.4375 17.8625 25.95C20.2125 18.8875 20.2125 11.1125 17.8625 4.03748C17.7 3.54998 17.9625 3.01248 18.45 2.84998C18.95 2.68748 19.475 2.94998 19.6375 3.43748C22.125 10.8875 22.125 19.0875 19.6375 26.525C19.5125 26.9375 19.1375 27.1875 18.75 27.1875Z" fill="#171717"/>
<path d="M15 21.5C11.5125 21.5 8.0375 21.0125 4.6875 20.025C4.675 20.525 4.2625 20.9375 3.75 20.9375C3.2375 20.9375 2.8125 20.5125 2.8125 20V18.75C2.8125 18.45 2.9625 18.1625 3.2 17.9875C3.45 17.8125 3.7625 17.7625 4.05 17.8625C11.1125 20.2125 18.9 20.2125 25.9625 17.8625C26.25 17.7625 26.5625 17.8125 26.8125 17.9875C27.0625 18.1625 27.2 18.45 27.2 18.75V20C27.2 20.5125 26.775 20.9375 26.2625 20.9375C25.75 20.9375 25.3375 20.5375 25.325 20.025C21.9625 21.0125 18.4875 21.5 15 21.5Z" fill="#171717"/>
<path d="M26.25 12.1875C26.15 12.1875 26.05 12.175 25.95 12.1375C18.8875 9.78751 11.1 9.78751 4.03747 12.1375C3.53747 12.3 3.01247 12.0375 2.84997 11.55C2.69997 11.05 2.96247 10.525 3.44997 10.3625C10.9 7.87501 19.1 7.87501 26.5375 10.3625C27.025 10.525 27.3 11.0625 27.125 11.55C27.0125 11.9375 26.6375 12.1875 26.25 12.1875Z" fill="#171717"/>
</svg>
